<?xml version="1.0" encoding="UTF-8"?>
<svg width="193px" height="35px" viewBox="0 0 193 35" version="1.1" xmlns="http://www.w3.org/2000/svg" xmlns:xlink="http://www.w3.org/1999/xlink">
    <!-- Generator: Sketch 46.2 (44496) - http://www.bohemiancoding.com/sketch -->
    <title>Group 2</title>
    <desc>Created with Sketch.</desc>
    <defs></defs>
    <g id="Assets" stroke="none" stroke-width="1" fill="none" fill-rule="evenodd">
        <g id="Product_Page_Navigation_standard_convertible" transform="translate(-823.000000, -92.000000)" fill-rule="nonzero">
            <g id="model_slider" transform="translate(0.000000, 37.000000)">
                <g id="Group-2" transform="translate(823.000000, 55.000000)">
                    <g id="JCW_logo_no_outline_RGB_for_MINI" transform="translate(0.004557, 0.804044)">
                        <path d="M105.754574,0 C106.716826,0 107.554916,0.186242279 108.268845,0.558726838 C108.67237,0.776009498 109.044855,1.05537292 109.355258,1.36577672 C109.603581,1.61409976 109.758783,1.92450355 109.913985,2.23490735 C109.976066,2.32802849 110.007106,2.35906887 110.069187,2.35906887 C110.193349,2.35906887 110.31751,2.17282659 110.379591,2.07970545 C110.907277,1.45889786 111.621206,0.993292157 112.366175,0.682888358 C113.204266,0.310403799 114.104437,0.12416152 115.066688,0.12416152 C115.159809,0.12416152 115.22189,0.12416152 115.315011,0.12416152 C116.742869,0.186242279 118.51217,0.807049878 119.226099,2.45219001 C119.25714,2.51427077 119.31922,2.54531115 119.381301,2.54531115 C119.381301,2.54531115 119.381301,2.54531115 119.381301,2.54531115 C119.443382,2.54531115 119.505463,2.48323039 119.536503,2.42114963 L119.784826,1.58305938 C120.033149,0.527686458 120.93332,0.403524939 122.081814,0.403524939 C122.268056,0.403524939 122.485339,0.403524939 122.702622,0.403524939 C122.702622,0.403524939 123.230308,0.434565319 123.230308,0.434565319 C124.596085,0.465605699 126.427467,0.527686458 127.389719,1.80034203 C127.42076,1.83138241 127.48284,1.86242279 127.513881,1.86242279 C127.513881,1.86242279 127.513881,1.86242279 127.544921,1.86242279 C127.607002,1.86242279 127.638042,1.80034203 127.669083,1.76930165 C127.762204,1.52097862 127.855325,1.27265558 128.072607,1.0864133 C128.351971,0.807049878 128.755496,0.651847978 129.159021,0.651847978 C129.190061,0.651847978 129.190061,0.651847978 129.221102,0.651847978 L132.759705,0.776009498 C134.187562,0.869130637 134.963572,0.776009498 135.336056,1.67618051 C135.367097,1.73826127 135.398137,1.76930165 135.460218,1.76930165 C135.460218,1.76930165 135.460218,1.76930165 135.491258,1.76930165 C135.553339,1.76930165 135.584379,1.73826127 135.61542,1.70722089 C135.925824,1.27265558 136.42247,0.993292157 136.950156,0.993292157 C136.981197,0.993292157 136.981197,0.993292157 137.012237,0.993292157 L137.912408,1.02433254 C139.060902,1.05537292 140.240436,1.05537292 141.233729,1.45889786 C142.506384,1.95554393 143.406555,3.07299761 143.499676,4.31461281 C143.530717,5.49414724 143.220313,6.67368168 142.289101,7.48073156 C142.258061,7.51177194 142.227021,7.54281232 142.227021,7.60489308 L142.227021,7.66697384 L142.97199,9.21899283 C172.491391,11.4228598 192.450355,15.6133111 192.450355,20.42457 C192.450355,27.5017766 149.366308,33.2442469 96.2251777,33.2442469 C43.0840473,33.2442469 0,27.5017766 0,20.42457 C0,15.5512303 20.2693681,11.3297387 50.1612539,9.15691207 C50.2543751,8.62922561 50.4406173,8.07049878 50.8441423,7.76009498 C51.2787076,7.4186508 51.7443133,7.4186508 52.2719998,7.38761042 L52.9238477,7.32552966 C53.4204938,7.2634489 53.6998572,6.98408548 53.7929784,6.45639902 L54.662109,2.39010925 C54.7862705,1.64514013 55.4070781,1.11745368 56.1210069,1.0864133 C56.1210069,1.0864133 57.9834297,0.931211397 57.9834297,0.931211397 C58.01447,0.931211397 58.01447,0.931211397 58.0455104,0.931211397 C58.7283988,0.931211397 59.3802468,1.3968171 59.5975294,2.04866507 C59.6285698,2.29698811 59.6596102,2.51427077 59.5975294,2.79363419 C59.5975294,2.85571495 59.6285698,2.91779571 59.6906506,2.94883609 C59.7216909,2.94883609 59.7216909,2.94883609 59.7527313,2.94883609 C59.8148121,2.94883609 59.8458525,2.91779571 59.8768928,2.88675533 C60.3735389,2.23490735 60.9322658,1.76930165 61.4909926,1.42785748 C62.3290829,0.931211397 63.2913346,0.589767218 64.3156672,0.527686458 C64.4398287,0.527686458 64.5639902,0.527686458 64.6881517,0.527686458 C66.2401707,0.527686458 67.978432,1.11745368 68.6613204,2.57635153 C68.6923607,2.63843229 68.7544415,2.70051305 68.8165223,2.70051305 C68.8165223,2.70051305 68.8165223,2.70051305 68.8165223,2.70051305 C68.878603,2.70051305 68.9406838,2.63843229 68.9717242,2.57635153 L69.1579664,1.76930165 C69.3131683,1.02433254 69.9339759,0.527686458 70.678945,0.527686458 L72.230964,0.465605699 C72.2620044,0.465605699 72.2930448,0.465605699 72.2930448,0.465605699 C73.0380139,0.465605699 73.5967408,0.776009498 73.9071446,1.33473634 C73.9381849,1.3968171 74.0002657,1.42785748 74.0623465,1.42785748 C74.0623465,1.42785748 74.0623465,1.42785748 74.0623465,1.42785748 C74.1244272,1.42785748 74.186508,1.3968171 74.2175484,1.33473634 C74.4658714,0.776009498 74.9935579,0.403524939 75.6143655,0.372484559 L77.2284652,0.310403799 C77.2595056,0.310403799 77.290546,0.310403799 77.3215863,0.310403799 C77.5699094,0.310403799 77.8492728,0.341444179 78.1286362,0.465605699 C78.4700804,0.620807598 78.7184034,0.900171017 78.9046457,1.27265558 C78.9356861,1.33473634 78.9977669,1.36577672 79.0598476,1.36577672 C79.0598476,1.36577672 79.0598476,1.36577672 79.0598476,1.36577672 C79.1219284,1.36577672 79.1840091,1.33473634 79.2150495,1.27265558 C79.4633726,0.651847978 79.991059,0.279363419 80.642907,0.279363419 L82.5984509,0.248323039 C82.5984509,0.248323039 82.6294913,0.248323039 82.6294913,0.248323039 C83.2192585,0.248323039 83.6848642,0.558726838 84.0263084,1.17953444 C84.0573488,1.2416152 84.1194295,1.27265558 84.1815103,1.27265558 C84.1815103,1.27265558 84.1815103,1.27265558 84.1815103,1.27265558 C84.2435911,1.27265558 84.3056718,1.2416152 84.3367122,1.17953444 C84.4298333,0.962251777 84.5229545,0.776009498 84.7091968,0.620807598 C84.9885602,0.372484559 85.3610447,0.248323039 85.7335293,0.248323039 L87.6269925,0.248323039 C88.1236386,0.248323039 88.5582039,0.465605699 88.8686077,0.807049878 C89.2100518,1.21057482 89.2721326,1.73826127 89.1790115,2.20386697 L87.999477,7.69801422 C89.0238096,7.69801422 90.0481421,7.66697384 91.0724746,7.66697384 C91.0103939,7.32552966 90.9483131,6.9530451 90.9483131,6.58056054 C90.9483131,6.11495484 91.0103939,5.61830876 91.1345554,5.12166268 C91.4139188,3.88004749 92.003686,2.82467457 92.7796955,2.01762469 C94.1454723,0.651847978 96.1010162,0.0620807598 98.0255197,0.0620807598 C98.3980043,0.0620807598 98.7394485,0.0931211397 99.111933,0.12416152 C99.7017003,0.186242279 100.322508,0.248323039 100.757073,0.651847978 C101.036437,0.900171017 101.222679,1.2416152 101.28476,1.61409976 C101.28476,1.67618051 101.34684,1.70722089 101.377881,1.73826127 C101.408921,1.73826127 101.408921,1.73826127 101.439962,1.73826127 C101.471002,1.73826127 101.502042,1.73826127 101.533083,1.70722089 C102.619496,0.744969118 103.892152,0.1552019 105.133767,0.0620807598 C105.320009,0 105.568332,0 105.754574,0" id="Shape" fill="#FFFFFF"></path>
                        <path d="M53.7929784,28.681311 L52.5513632,12.2609501 L55.9347646,12.2299097 L56.462451,24.8323039 L62.2359617,12.1367885 L65.8056054,12.1057482 L66.7057764,24.9875058 L72.0757621,12.0436674 L75.6764462,12.012627 L67.8542705,28.9917148 L64.0052634,28.8985937 L63.1050923,16.5755629 L57.4867836,28.7433918 L53.7929784,28.681311 L53.7929784,28.681311 L53.7929784,28.681311 Z M94.3006742,29.333159 C95.3870874,23.9010925 97.7461563,11.9815866 97.7461563,11.9815866 C99.515458,11.9815866 101.253719,11.9815866 103.023021,11.9815866 C104.264636,11.9815866 105.568332,12.1367885 106.654745,12.7575961 C107.803239,13.4094441 108.299885,14.5579382 108.330926,15.8616341 C108.361966,17.1342897 108.020522,18.469026 107.368674,19.5554393 C106.716826,20.6418526 105.692494,21.4178621 104.544,21.9145082 C105.599372,24.3666982 106.623705,26.8188882 107.679078,29.3021186 C106.344342,29.3021186 105.009605,29.333159 103.674869,29.333159 C102.805738,27.0982517 101.905567,24.8633443 101.036437,22.6594773 C100.694992,22.6905177 100.322508,22.6905177 99.9810637,22.6905177 C99.6396195,22.6905177 99.4533772,22.6905177 99.111933,22.6905177 C98.6773677,24.9254251 98.2428024,27.129292 97.7771967,29.3641994 C96.6287026,29.333159 95.4802086,29.333159 94.3006742,29.333159 L94.3006742,29.333159 Z M99.6085791,20.0520854 C100.167306,20.0520854 100.726033,20.0520854 101.253719,20.0520854 C102.060769,20.0520854 102.805738,19.8658431 103.457586,19.4002374 C104.078394,18.9346317 104.419838,18.2827838 104.637121,17.568855 C104.823363,16.8859667 104.823363,16.016836 104.388798,15.4270688 C103.923192,14.8062612 103.054061,14.6200189 102.309092,14.6200189 C101.998688,14.6200189 100.694992,14.6200189 100.694992,14.6200189 C100.322508,16.3893206 99.9810637,18.220703 99.6085791,20.0520854 L99.6085791,20.0520854 Z M111.031439,29.2710783 L114.539002,12.012627 L118.046565,12.0436674 L116.525586,19.4623182 L123.726954,12.1057482 L128.103648,12.1367885 L120.002109,20.42457 L125.868741,29.0537956 L121.523087,29.1469167 L116.215182,21.2316199 L114.601083,29.2400379 L111.031439,29.2710783 L111.031439,29.2710783 Z M132.635543,29.1779571 C134.870451,29.1158764 137.2916,28.5261091 138.719458,26.6636863 C139.867952,25.2047885 140.333558,23.0630023 139.340265,21.3868218 C138.440094,19.8968835 136.608712,19.2760759 135.180854,18.4379857 C134.466926,18.0344607 133.690916,17.5998954 133.690916,16.668684 C133.690916,15.7064322 134.529007,15.0856246 135.367097,14.8062612 C136.236227,14.4958574 137.26056,14.4958574 138.160731,14.5579382 C139.122983,14.6200189 140.054194,14.8373016 140.985406,15.116665 L141.513092,12.4782327 C141.513092,12.4782327 141.451011,12.4471923 141.419971,12.4471923 C140.395638,12.2299097 139.371306,12.0436674 138.315933,11.9505463 C136.081026,11.764304 133.690916,12.1678289 131.983695,13.7198479 C130.555838,14.9925035 129.779828,17.0101282 130.648959,18.8415106 C131.487049,20.6108123 133.566755,21.1074583 135.087733,22.1007505 C135.460218,22.3490735 135.925824,22.6594773 136.143106,23.0630023 C136.360389,23.4665272 136.360389,23.9321329 136.267268,24.3666982 C136.049985,25.2358289 135.336056,25.7945557 134.529007,26.0739191 C132.635543,26.7568075 130.493757,26.3532825 128.662375,25.7635153 L128.103648,28.6502707 C128.103648,28.6502707 128.320931,28.7123514 128.724455,28.8054726 C129.997111,29.1779571 131.331847,29.2089975 132.635543,29.1779571 L132.635543,29.1779571 Z M82.3501279,29.6435628 C81.0153916,29.6435628 79.6185745,29.4262802 78.43904,28.7433918 C77.2595056,28.0915438 76.4524557,26.9740901 76.0489308,25.7014346 C75.6454058,24.3977386 75.6454058,23.0009215 75.8006077,21.6351448 C75.9558096,20.2383277 76.3903749,18.872551 77.0111825,17.5998954 C78.2527977,15.116665 80.394584,13.0059192 83.0640566,12.1057482 C84.398793,11.6401425 85.8576908,11.4849406 87.2545079,11.6401425 C88.5892443,11.7953444 89.8929402,12.2299097 90.8862324,13.1611211 C92.9659378,15.116665 92.9348974,18.4379857 92.3451302,21.0453776 C91.7243226,23.7458906 90.2343844,26.2601614 87.9373963,27.8742612 C86.2612158,29.0227552 84.3056718,29.6435628 82.3501279,29.6435628 L82.3501279,29.6435628 Z M85.4852063,14.4958574 C82.5674105,14.5268978 80.4877051,16.917007 79.6806552,19.524399 C78.9667265,21.7903467 78.6252823,25.7014346 81.543078,26.5705652 C82.846774,26.9430498 84.3056718,26.6636863 85.4541659,25.980798 C86.6337003,25.2668692 87.502831,24.1494156 88.1236386,22.9388408 C88.7444462,21.6661852 89.0548499,20.2693681 89.1169307,18.8415106 C89.1790115,17.5378146 88.9617288,16.0478764 87.8442751,15.1787458 C87.1613868,14.6510593 86.2922561,14.4958574 85.4852063,14.4958574 L85.4852063,14.4958574 Z" id="Shape" fill="#000000"></path>
                        <path d="M139.961073,17.97238 C139.930033,17.97238 139.898992,18.0034203 139.961073,18.0344607 C140.830204,18.6242279 141.606213,19.2760759 142.071819,20.0831258 C142.599505,20.9522564 142.878869,21.8834678 142.940949,22.9078004 C169.728797,22.4111543 187.639097,21.5109833 187.639097,20.4556104 C187.639097,19.3691971 168.363021,18.4379857 139.961073,17.97238 Z" id="Shape" fill="#CC0000"></path>
                        <path d="M4.78021851,20.4556104 C4.78021851,21.5109833 23.0009215,22.4111543 50.1302135,22.9078004 L49.757729,18.0034203 C22.8457196,18.5000664 4.78021851,19.4002374 4.78021851,20.4556104 Z" id="Shape" fill="#CC0000"></path>
                        <g id="Group" transform="translate(51.837434, 0.931211)" fill="#CC0000">
                            <path d="M3.50756293,6.05287408 C3.38340141,6.7978432 3.19715913,7.5738527 2.39010925,7.82217574 C1.73826127,8.0394584 1.05537292,7.94633726 0.403524939,7.82217574 C0.341444179,8.25674105 0.248323039,8.69130637 0.186242279,9.15691207 C0.434565319,9.15691207 0.713928738,9.25003321 0.962251777,9.25003321 C1.21057482,9.25003321 1.45889786,9.25003321 1.70722089,9.25003321 C2.51427077,9.21899283 3.35236103,9.03275055 3.97316863,8.47402371 C4.59397623,7.91529688 4.9354204,7.108247 5.0906223,6.30119712 C5.4010261,4.62501661 5.68038952,2.94883609 5.99079332,1.27265558 C5.46310686,1.30369596 4.90438003,1.33473634 4.37669357,1.33473634 C4.03524939,2.91779571 3.75588597,4.50085509 3.50756293,6.05287408 Z" id="Shape"></path>
                            <path d="M23.2492445,3.63172445 C22.0697101,3.66276483 20.9212161,3.69380521 19.7416816,3.72484559 C19.9279239,2.73155343 20.1141662,1.73826127 20.3314488,0.744969118 C19.8037624,0.776009498 19.2450355,0.776009498 18.7173491,0.807049878 C18.220703,3.35236103 17.7240569,5.92871256 17.2584512,8.50506409 C17.7861377,8.47402371 18.3448645,8.47402371 18.872551,8.44298333 C19.0898336,7.35657004 19.3071163,6.23911636 19.4933586,5.15270306 C20.672893,5.12166268 21.8213871,5.0906223 23.0009215,5.05958192 C22.7836389,6.14599522 22.5663562,7.2634489 22.3490735,8.34986219 C22.87676,8.34986219 23.4354868,8.31882181 23.9631733,8.31882181 C24.4598194,5.77351066 24.9875058,3.19715913 25.4841519,0.651847978 C24.9564654,0.651847978 24.3977386,0.682888358 23.8700521,0.682888358 C23.6527695,1.64514013 23.4665272,2.63843229 23.2492445,3.63172445 Z" id="Shape"></path>
                            <path d="M32.6544797,6.0218337 C32.0026317,4.19045129 31.3507837,2.35906887 30.6678953,0.496646078 C30.0160474,0.496646078 29.3952398,0.527686458 28.7433918,0.527686458 C28.2157053,3.07299761 27.7190593,5.64934914 27.1913728,8.1946603 C27.7190593,8.1946603 28.2157053,8.16361992 28.7433918,8.16361992 C29.1158764,6.3322375 29.4883609,4.46981471 29.8608455,2.63843229 C30.5126934,4.46981471 31.1955818,6.30119712 31.8474298,8.13257954 C32.4682374,8.13257954 33.1200854,8.10153916 33.740893,8.10153916 C34.2685794,5.556228 34.7962659,3.01091685 35.3549927,0.434565319 C34.8273063,0.434565319 34.3306602,0.434565319 33.8029737,0.434565319 C33.4304892,2.32802849 33.0269642,4.19045129 32.6544797,6.0218337 Z" id="Shape"></path>
                            <path d="M74.186508,1.36577672 C73.8140234,1.05537292 73.3173773,0.900171017 72.8207313,0.869130637 C71.7653583,0.744969118 70.7099854,0.776009498 69.6546125,0.744969118 C69.0338049,3.25923989 68.4129973,5.80455104 67.7921897,8.31882181 C68.3198762,8.31882181 68.8165223,8.34986219 69.3442087,8.34986219 C69.5614914,7.44969118 69.778774,6.54952016 70.0270971,5.61830876 C71.08247,5.64934914 72.1999237,5.77351066 73.1932158,5.2458242 C74.1244272,4.74917813 74.6831541,3.69380521 74.7452348,2.63843229 C74.7141944,2.20386697 74.5900329,1.70722089 74.186508,1.36577672 Z M72.9448928,3.41444179 C72.7586505,3.91108787 72.4172063,4.31461281 71.8895199,4.46981471 C71.3928738,4.62501661 70.8031066,4.53189547 70.2754201,4.50085509 C70.4927028,3.63172445 70.7099854,2.79363419 70.9272681,1.92450355 C71.4239142,1.92450355 72.0447218,1.86242279 72.5103275,2.07970545 C73.0690543,2.32802849 73.1311351,2.91779571 72.9448928,3.41444179 Z" id="Shape"></path>
                            <path d="M75.6143655,8.56714485 C77.2595056,8.62922561 78.8736053,8.69130637 80.5187455,8.75338713 C80.642907,8.31882181 80.7360281,7.91529688 80.8601897,7.48073156 C79.7737764,7.44969118 78.6563227,7.38761042 77.5699094,7.35657004 C77.7251113,6.70472206 77.9113536,6.05287408 78.0665555,5.4010261 C79.090888,5.43206648 80.0841802,5.46310686 81.1085127,5.52518762 C81.2326742,5.0906223 81.3257954,4.68709737 81.4499569,4.25253205 C80.4256243,4.22149167 79.4012918,4.15941091 78.4079996,4.12837053 C78.5632015,3.53860331 78.7184034,2.91779571 78.8736053,2.32802849 C79.9289783,2.35906887 81.0153916,2.42114963 82.0707645,2.45219001 C82.194926,2.01762469 82.2880471,1.61409976 82.4122086,1.17953444 C80.7981089,1.11745368 79.1840091,1.05537292 77.6009498,0.993292157 C76.9180614,3.50756293 76.2662134,6.05287408 75.6143655,8.56714485 Z" id="Shape"></path>
                            <path d="M88.2478001,5.80455104 C88.9927692,5.556228 89.5825364,5.02854154 89.8929402,4.28357243 C90.1723036,3.63172445 90.3585459,2.70051305 89.8308594,2.11074583 C89.3342134,1.52097862 88.4650827,1.42785748 87.751154,1.3968171 C86.9441041,1.36577672 86.1680946,1.33473634 85.3610447,1.30369596 C84.6781564,3.81796673 84.0263084,6.3322375 83.3744604,8.84650827 C83.9021469,8.87754865 84.398793,8.87754865 84.9264794,8.90858903 C85.1748025,7.94633726 85.4541659,6.98408548 85.7024889,6.0218337 C86.0128927,6.0218337 86.3232965,6.08391446 86.6026599,6.05287408 C86.9441041,7.04616624 87.2545079,8.0394584 87.5959521,9.03275055 C88.2167597,9.06379093 88.8065269,9.09483131 89.4273345,9.12587169 C89.0548499,8.0394584 88.651325,6.92200472 88.2478001,5.80455104 Z M87.4717906,4.84229927 C87.0061849,4.99750116 86.5095388,4.90438003 86.0439331,4.87333965 C86.2612158,4.06628977 86.4784984,3.29028027 86.6647407,2.48323039 C87.1303464,2.51427077 87.6890732,2.45219001 88.1236386,2.70051305 C88.5582039,2.94883609 88.5892443,3.47652255 88.4340424,3.91108787 C88.2478001,4.37669357 87.9373963,4.71813775 87.4717906,4.84229927 Z" id="Shape"></path>
                            <path d="M12.0436674,0.900171017 C10.6778907,1.0864133 9.52939663,1.92450355 8.81546789,3.07299761 C8.13257954,4.19045129 7.79113536,5.68038952 8.13257954,6.98408548 C8.28778143,7.60489308 8.66026599,8.16361992 9.21899283,8.47402371 C9.77771967,8.78442751 10.4295676,8.87754865 11.0503752,8.84650827 C12.5713539,8.78442751 13.968171,7.8842565 14.7441805,6.58056054 C15.4581092,5.4010261 15.7995534,3.66276483 15.2718669,2.35906887 C14.7441805,1.0864133 13.316323,0.713928738 12.0436674,0.900171017 Z M13.7508883,4.9354204 C13.4715249,6.1770356 12.5713539,7.48073156 11.2055771,7.51177194 C10.6158099,7.54281232 10.0570831,7.29448928 9.80876005,6.70472206 C9.52939663,6.11495484 9.59147739,5.36998572 9.71563891,4.78021851 C9.96396195,3.50756293 10.864133,2.23490735 12.2609501,2.20386697 C12.2919904,2.20386697 12.3230308,2.20386697 12.3540712,2.20386697 C12.9438384,2.20386697 13.4715249,2.45219001 13.7198479,3.01091685 C13.968171,3.56964369 13.9060902,4.31461281 13.7508883,4.9354204 Z" id="Shape"></path>
                            <path d="M53.4825746,0.341444179 C52.1167979,0.465605699 50.906223,1.2416152 50.1612539,2.39010925 C49.4162848,3.47652255 49.0438003,4.96646078 49.2921233,6.27015674 C49.4162848,6.89096434 49.757729,7.48073156 50.3164558,7.82217574 C50.8441423,8.16361992 51.5270306,8.28778143 52.1478382,8.28778143 C53.6688169,8.28778143 55.0966743,7.48073156 55.9347646,6.20807598 C56.7107741,5.05958192 57.114299,3.35236103 56.6486933,2.01762469 C56.1830876,0.651847978 54.7552302,0.217282659 53.4825746,0.341444179 Z M55.0345936,4.43877433 C54.7241898,5.68038952 53.761938,6.92200472 52.3651209,6.89096434 C51.7753537,6.89096434 51.2166268,6.61160092 50.9993442,6.0218337 C50.7510211,5.43206648 50.8441423,4.68709737 50.9993442,4.06628977 C51.309748,2.79363419 52.2409594,1.58305938 53.6688169,1.61409976 C53.6998572,1.61409976 53.7308976,1.61409976 53.761938,1.61409976 C54.3517052,1.64514013 54.8793917,1.92450355 55.0966743,2.48323039 C55.2829166,3.10403799 55.1897955,3.84900711 55.0345936,4.43877433 Z" id="Shape"></path>
                            <path d="M62.9498904,0.465605699 C61.5841137,0.589767218 60.3735389,1.36577672 59.5975294,2.45219001 C58.8525603,3.53860331 58.4490354,4.99750116 58.6973584,6.3322375 C58.8215199,6.9530451 59.1629641,7.54281232 59.6906506,7.8842565 C60.218337,8.22570067 60.870185,8.34986219 61.522033,8.34986219 C63.0430116,8.38090257 64.4708691,7.5738527 65.3089593,6.30119712 C66.0849688,5.15270306 66.5195341,3.44548217 66.0539284,2.11074583 C65.6504035,0.807049878 64.222546,0.372484559 62.9498904,0.465605699 Z M64.4708691,4.59397623 C64.1294249,5.83559142 63.1671731,7.04616624 61.770356,7.01512586 C61.1805888,7.01512586 60.621862,6.73576244 60.4045793,6.14599522 C60.1562563,5.556228 60.2493774,4.81125889 60.4045793,4.19045129 C60.7149831,2.94883609 61.6772349,1.73826127 63.074052,1.76930165 C63.1050923,1.76930165 63.1361327,1.76930165 63.1671731,1.76930165 C63.7569403,1.80034203 64.2535864,2.07970545 64.4708691,2.63843229 C64.7191921,3.25923989 64.626071,3.97316863 64.4708691,4.59397623 Z" id="Shape"></path>
                            <path d="M44.2635817,0.589767218 C43.0530069,0.993292157 42.0597148,1.89346317 41.5320283,3.07299761 C41.0353822,4.15941091 40.7560188,5.61830876 41.3147457,6.73576244 C41.8424321,7.85321612 43.1150877,8.25674105 44.2946221,8.25674105 C45.0085509,8.25674105 45.6914392,8.16361992 46.3743276,8.0394584 C46.4674487,7.60489308 46.5605699,7.13928738 46.653691,6.70472206 C46.1570449,6.82888358 45.5983181,6.89096434 45.101672,6.92200472 C44.6050259,6.9530451 44.0773395,6.92200472 43.6117338,6.70472206 C42.649482,6.23911636 42.6184416,5.05958192 42.8667646,4.12837053 C43.1150877,3.13507837 43.8600568,2.17282659 44.7912682,1.83138241 C45.6914392,1.52097862 46.7468121,1.61409976 47.6159428,1.89346317 C47.7090639,1.45889786 47.8021851,1.02433254 47.8953062,0.558726838 C46.7468121,0.217282659 45.4431162,0.186242279 44.2635817,0.589767218 Z" id="Shape"></path>
                        </g>
                    </g>
                </g>
            </g>
        </g>
    </g>
</svg>