<?xml version="1.0" encoding="UTF-8"?>
<svg width="159px" height="35px" viewBox="0 0 159 35" version="1.1" xmlns="http://www.w3.org/2000/svg" xmlns:xlink="http://www.w3.org/1999/xlink">
    <!-- Generator: Sketch 46.2 (44496) - http://www.bohemiancoding.com/sketch -->
    <title>mini_electric_badge_rgb_pos</title>
    <desc>Created with Sketch.</desc>
    <defs></defs>
    <g id="Assets" stroke="none" stroke-width="1" fill="none" fill-rule="evenodd">
        <g id="Product_Page_Navigation_standard_convertible" transform="translate(-1050.000000, -92.000000)" fill-rule="nonzero">
            <g id="mini_electric_badge_rgb_pos" transform="translate(1050.000000, 92.000000)">
                <g id="Group">
                    <path d="M17.5462047,5.07417271 C16.5977612,5.07417271 15.6493177,5.16901706 14.7482964,5.40612793 L14.7482964,8.82052452 L8.67825799,8.82052452 C6.87621535,10.6699893 5.59581663,13.0885203 5.26386141,15.7915842 L14.7482964,15.7915842 L14.7482964,19.1585586 L5.26386141,19.1585586 C5.6432388,21.8616226 6.87621535,24.2801535 8.67825799,26.1296183 L14.7008742,26.1296183 L14.7008742,29.5440149 C15.6493177,29.7811258 16.550339,29.8759701 17.5462047,29.8759701 C24.3749979,29.8759701 29.9708145,24.3275757 29.9708145,17.4513603 C29.9233923,10.6225672 24.3749979,5.07417271 17.5462047,5.07417271 Z" id="Shape" fill="#E1CA00"></path>
                    <path d="M17.5462047,0 C7.87208102,0 0.0474221748,7.82465885 0.0474221748,17.4987825 C0.0474221748,27.1729062 7.87208102,34.997565 17.5462047,34.997565 C27.2203283,34.997565 35.0449872,27.1729062 35.0449872,17.4987825 C34.997565,7.82465885 27.1729062,0 17.5462047,0 Z M17.5462047,32.7213006 C9.15247974,32.7213006 2.32368657,25.8925075 2.32368657,17.4987825 C2.32368657,9.10505757 9.15247974,2.27626439 17.5462047,2.27626439 C25.9399296,2.27626439 32.7687228,9.10505757 32.7687228,17.4987825 C32.7687228,25.8925075 25.9399296,32.7213006 17.5462047,32.7213006 Z" id="Shape" fill="#000000"></path>
                </g>
                <path d="M155.165356,23.047177 C156.161222,23.047177 156.967399,22.7626439 157.631309,22.1935778 C158.29522,21.6245117 158.722019,20.8183347 158.911708,19.8224691 L158.058109,19.8224691 C157.915842,20.5812239 157.583887,21.1977121 157.109665,21.5770895 C156.635443,21.9564669 156.1138,22.1461556 155.497311,22.1461556 C154.880823,22.1461556 154.359179,21.9090448 153.884957,21.4822452 C153.410736,21.0554456 153.031358,20.4389573 152.746825,19.6327804 C152.462292,18.8266034 152.320026,17.8781599 152.320026,16.7400277 C152.320026,15.5544733 152.557136,14.5586077 152.983936,13.7998529 C153.410736,13.0410981 154.074646,12.6617207 154.975667,12.6617207 C155.544733,12.6617207 156.018955,12.8514094 156.398333,13.278209 C156.77771,13.6575863 157.014821,14.3214968 157.109665,15.1750959 L158.53233,15.1750959 L158.53233,12.9462537 C158.058109,12.6617207 157.583887,12.4246098 157.062243,12.2349211 C156.540599,12.0452324 155.924111,11.9503881 155.165356,11.9503881 C154.074646,11.9503881 153.126202,12.2349211 152.41487,12.756565 C151.703537,13.3256311 151.134471,14.0369637 150.802516,14.8905629 C150.470561,15.7915842 150.280872,16.7400277 150.280872,17.7358934 C150.280872,18.6369147 150.423139,19.4905139 150.755094,20.2966908 C151.087049,21.1028678 151.608693,21.7667782 152.320026,22.2884222 C153.07878,22.8100661 154.027224,23.047177 155.165356,23.047177 L155.165356,23.047177 Z M149.427273,12.8988316 L149.427273,12.0926546 L144.210834,12.0926546 L144.210834,12.8988316 L145.823188,12.8988316 L145.823188,22.0513113 L144.210834,22.0513113 L144.210834,22.8574883 L149.427273,22.8574883 L149.427273,22.0513113 L147.814919,22.0513113 L147.814919,12.8988316 L149.427273,12.8988316 Z M136.860397,12.8988316 L138.377906,12.8988316 C138.804706,12.8988316 139.184083,13.0885203 139.468616,13.4678976 C139.753149,13.847275 139.895416,14.368919 139.895416,14.9854072 C139.895416,15.6018955 139.753149,16.0761173 139.468616,16.5029168 C139.184083,16.9297164 138.804706,17.1194051 138.377906,17.1194051 L136.860397,17.1194051 L136.860397,12.8988316 Z M142.59848,22.0513113 L139.847994,17.7833156 C140.511904,17.5936269 141.033548,17.2142495 141.412925,16.7400277 C141.792303,16.265806 141.981991,15.6493177 141.981991,15.0328294 C141.981991,14.2266524 141.697458,13.5153198 141.08097,12.9462537 C140.511904,12.3771876 139.610883,12.1400768 138.47275,12.1400768 L133.493422,12.1400768 L133.493422,12.9462537 L134.773821,12.9462537 L134.773821,22.0987335 L133.493422,22.0987335 L133.493422,22.9049104 L138.093373,22.9049104 L138.093373,22.0987335 L136.812974,22.0987335 L136.812974,18.0204264 L137.761418,18.0204264 L140.796437,22.9049104 L143.784034,22.9049104 L143.784034,22.0987335 L142.59848,22.0987335 L142.59848,22.0513113 Z M125.858452,22.8574883 L131.027469,22.8574883 L131.027469,22.0513113 L129.462537,22.0513113 L129.462537,12.8988316 L130.932625,12.8988316 L131.786224,15.1276738 L132.876934,15.1276738 L132.876934,12.0926546 L124.056409,12.0926546 L124.056409,15.1276738 L125.147119,15.1276738 L125.953296,12.8988316 L127.423384,12.8988316 L127.423384,22.0513113 L125.858452,22.0513113 L125.858452,22.8574883 Z M119.456458,23.047177 C120.452324,23.047177 121.258501,22.7626439 121.922411,22.1935778 C122.586322,21.6245117 123.013121,20.8183347 123.20281,19.8224691 L122.349211,19.8224691 C122.206945,20.5812239 121.874989,21.1977121 121.400768,21.5770895 C120.926546,21.9564669 120.404902,22.1461556 119.788414,22.1461556 C119.171925,22.1461556 118.650281,21.9090448 118.17606,21.4822452 C117.701838,21.0554456 117.322461,20.4389573 117.037927,19.6327804 C116.753394,18.8266034 116.611128,17.8781599 116.611128,16.7400277 C116.611128,15.5544733 116.848239,14.5586077 117.275038,13.7998529 C117.701838,13.0410981 118.365748,12.6617207 119.26677,12.6617207 C119.835836,12.6617207 120.310058,12.8514094 120.689435,13.278209 C121.068812,13.6575863 121.305923,14.3214968 121.400768,15.1750959 L122.823433,15.1750959 L122.823433,12.9462537 C122.349211,12.6617207 121.874989,12.4246098 121.353345,12.2349211 C120.831701,12.0452324 120.215213,11.9503881 119.456458,11.9503881 C118.365748,11.9503881 117.417305,12.2349211 116.705972,12.756565 C115.99464,13.3256311 115.425574,14.0369637 115.093618,14.8905629 C114.761663,15.7915842 114.571974,16.7400277 114.571974,17.7358934 C114.571974,18.6369147 114.714241,19.4905139 115.046196,20.2966908 C115.378151,21.1028678 115.899795,21.7667782 116.611128,22.2884222 C117.369883,22.8100661 118.318326,23.047177 119.456458,23.047177 L119.456458,23.047177 Z M112.437977,19.8224691 L111.6318,22.0513113 L108.359669,22.0513113 L108.359669,17.5936269 L110.066868,17.5936269 L110.066868,18.8740256 L111.062733,18.8740256 L111.062733,15.459629 L110.066868,15.459629 L110.066868,16.7400277 L108.359669,16.7400277 L108.359669,12.8514094 L111.489533,12.8514094 L112.343132,15.0802516 L113.481264,15.0802516 L113.481264,12.0452324 L105.040117,12.0452324 L105.040117,12.8514094 L106.320516,12.8514094 L106.320516,22.0038891 L105.040117,22.0038891 L105.040117,22.8100661 L113.623531,22.8100661 L113.623531,19.7750469 L112.437977,19.7750469 L112.437977,19.8224691 Z M95.745371,22.8574883 L104.328785,22.8574883 L104.328785,19.8224691 L103.190652,19.8224691 L102.384475,22.0513113 L99.1123454,22.0513113 L99.1123454,12.8988316 L100.392744,12.8988316 L100.392744,12.0926546 L95.7927931,12.0926546 L95.7927931,12.8988316 L97.0731919,12.8988316 L97.0731919,22.0513113 L95.7927931,22.0513113 L95.7927931,22.8574883 L95.745371,22.8574883 Z M93.6587953,19.8224691 L92.8526183,22.0513113 L89.5804882,22.0513113 L89.5804882,17.5936269 L91.2876865,17.5936269 L91.2876865,18.8740256 L92.2835522,18.8740256 L92.2835522,15.459629 L91.2876865,15.459629 L91.2876865,16.7400277 L89.5804882,16.7400277 L89.5804882,12.8514094 L92.7103518,12.8514094 L93.5639509,15.0802516 L94.7020831,15.0802516 L94.7020831,12.0452324 L86.260936,12.0452324 L86.260936,12.8514094 L87.5413347,12.8514094 L87.5413347,22.0038891 L86.260936,22.0038891 L86.260936,22.8100661 L94.8443496,22.8100661 L94.8443496,19.7750469 L93.6587953,19.7750469 L93.6587953,19.8224691 Z M81.376452,12.8988316 L81.376452,12.0926546 L76.1600128,12.0926546 L76.1600128,12.8988316 L77.7723667,12.8988316 L77.7723667,22.0513113 L76.1600128,22.0513113 L76.1600128,22.8574883 L81.376452,22.8574883 L81.376452,22.0513113 L79.7640981,22.0513113 L79.7640981,12.8988316 L81.376452,12.8988316 Z M65.63229,22.8574883 L69.0941087,22.8574883 L69.0941087,22.0513113 L67.81371,22.0513113 L67.81371,14.7008742 L73.0301492,22.8574883 L74.2631258,22.8574883 L74.2631258,12.8988316 L75.5435245,12.8988316 L75.5435245,12.0926546 L72.0817057,12.0926546 L72.0817057,12.8988316 L73.3621044,12.8988316 L73.3621044,19.4905139 L68.619887,12.0926546 L65.63229,12.0926546 L65.63229,12.8988316 L66.9126887,12.8988316 L66.9126887,22.0513113 L65.63229,22.0513113 L65.63229,22.8574883 L65.63229,22.8574883 Z M64.8735352,12.8988316 L64.8735352,12.0926546 L59.6570959,12.0926546 L59.6570959,12.8988316 L61.2694499,12.8988316 L61.2694499,22.0513113 L59.6570959,22.0513113 L59.6570959,22.8574883 L64.8735352,22.8574883 L64.8735352,22.0513113 L63.2611812,22.0513113 L63.2611812,12.8988316 L64.8735352,12.8988316 Z M45.7623987,22.8574883 L49.1767953,22.8574883 L49.1767953,22.0513113 L47.9438187,22.0513113 L47.9438187,14.653452 L51.3582153,22.0513113 L52.4015032,22.0513113 L55.5787889,14.653452 L55.5787889,22.0513113 L54.3458123,22.0513113 L54.3458123,22.8574883 L58.8983411,22.8574883 L58.8983411,22.0513113 L57.6179424,22.0513113 L57.6179424,12.8988316 L58.8983411,12.8988316 L58.8983411,12.0926546 L55.6736332,12.0926546 L52.4489254,19.6802026 L48.9871066,12.0926546 L45.7623987,12.0926546 L45.7623987,12.8988316 L47.0427974,12.8988316 L47.0427974,22.0513113 L45.7623987,22.0513113 L45.7623987,22.8574883 L45.7623987,22.8574883 Z" id="Shape" fill="#000000"></path>
            </g>
        </g>
    </g>
</svg>